<?xml version="1.0" encoding="UTF-8"?>
<!-- Generated by Pixelmator Pro 3.7 -->
<svg width="705" height="773" viewBox="0 0 705 773" xmlns="http://www.w3.org/2000/svg">
    <g id="Cool-Potato">
        <g id="potatocolor">
            <radialGradient id="radialGradient1" cx="643.135294" cy="144.123655" r="795.422148" fx="643.135294" fy="144.123655" gradientUnits="userSpaceOnUse">
                <stop offset="1e-05" stop-color="#ffe7bb" stop-opacity="1"/>
                <stop offset="0.399343" stop-color="#eab994" stop-opacity="1"/>
                <stop offset="0.657157" stop-color="#dd977f" stop-opacity="1"/>
                <stop offset="0.78124" stop-color="#d27e76" stop-opacity="1"/>
                <stop offset="0.885055" stop-color="#c96a6f" stop-opacity="1"/>
            </radialGradient>
            <path id="Path" fill="url(#radialGradient1)" stroke="none" d="M 529.189087 29.33844 C 414.224609 -24.859009 276.814758 10.177734 201.814148 112.550842 L 58.381744 307.99176 C -49.739571 455.255737 3.63678 664.655273 168.966614 742.393188 C 314.862518 811.098145 488.404114 747.593994 556.01416 601.424866 L 657.566101 381.350037 C 718.60675 248.867188 661.398193 91.747742 529.189087 29.33844 Z"/>
            <linearGradient id="linearGradient1" x1="51.205237" y1="188.603949" x2="304.400752" y2="301.515462" gradientUnits="userSpaceOnUse">
                <stop offset="1e-05" stop-color="#ab8261" stop-opacity="1"/>
                <stop offset="1" stop-color="#ae8462" stop-opacity="0"/>
            </linearGradient>
            <path id="path1" fill="url(#linearGradient1)" stroke="none" d="M 529.189087 29.33844 C 414.224609 -24.859009 276.814758 10.177734 201.814148 112.550842 L 58.381744 307.99176 C -49.739571 455.255737 3.63678 664.655273 168.966614 742.393188 C 314.862518 811.098145 488.404114 747.593994 556.01416 601.424866 L 657.566101 381.350037 C 718.60675 248.867188 661.398193 91.747742 529.189087 29.33844 Z"/>
            <radialGradient id="radialGradient2" cx="136.744262" cy="442.656223" r="66.940949" fx="136.744262" fy="442.656223" gradientUnits="userSpaceOnUse">
                <stop offset="1e-05" stop-color="#bb8056" stop-opacity="1"/>
                <stop offset="1" stop-color="#b0693c" stop-opacity="1"/>
            </radialGradient>
            <path id="path3" fill="url(#radialGradient2)" stroke="none" d="M 162.967377 469.171997 C 185.806732 469.171997 204.321442 450.788574 204.321442 428.11322 C 204.321442 405.437866 185.806732 387.054443 162.967377 387.054443 C 140.128845 387.054443 121.614655 405.437866 121.614655 428.11322 C 121.614655 450.788574 140.128845 469.171997 162.967377 469.171997 Z"/>
            <radialGradient id="radialGradient3" cx="188.924436" cy="625.707001" r="38.72044" fx="188.924436" fy="625.707001" gradientUnits="userSpaceOnUse">
                <stop offset="1e-05" stop-color="#c5805e" stop-opacity="1"/>
                <stop offset="1" stop-color="#b9663b" stop-opacity="1"/>
            </radialGradient>
            <path id="path4" fill="url(#radialGradient3)" stroke="none" d="M 204.318726 635.136841 C 220.38089 635.136841 233.402008 622.115723 233.402008 606.050842 C 233.402008 589.988647 220.38089 576.967529 204.318726 576.967529 C 188.253815 576.967529 175.233521 589.988647 175.233521 606.050842 C 175.233521 622.115723 188.253815 635.136841 204.318726 635.136841 Z"/>
            <radialGradient id="radialGradient4" cx="550.753146" cy="380.211366" r="42.910565" fx="550.753146" fy="380.211366" gradientUnits="userSpaceOnUse">
                <stop offset="0.05633" stop-color="#dc9b66" stop-opacity="1"/>
                <stop offset="0.852005" stop-color="#ca7544" stop-opacity="1"/>
            </radialGradient>
            <path id="path5" fill="url(#radialGradient4)" stroke="none" d="M 546.874451 385.592773 C 559.460327 392.862915 576.401184 387.098267 584.711487 372.71405 C 593.02179 358.329773 589.55365 340.773071 576.967773 333.500183 C 564.379211 326.230103 547.438354 331.99469 539.128052 346.378967 C 530.817749 360.763245 534.285828 378.319946 546.874451 385.592773 Z"/>
            <radialGradient id="radialGradient5" cx="404.480044" cy="127.092767" r="76.156547" fx="404.480044" fy="127.092767" gradientUnits="userSpaceOnUse">
                <stop offset="0.05633" stop-color="#dc9b66" stop-opacity="1"/>
                <stop offset="0.852005" stop-color="#c97c34" stop-opacity="1"/>
            </radialGradient>
            <path id="path6" fill="url(#radialGradient5)" stroke="none" d="M 438.331604 167.660156 C 460.738708 167.660156 478.900391 149.497437 478.900391 127.092773 C 478.900391 104.687866 460.738708 86.525085 438.331604 86.525085 C 415.927246 86.525085 397.765564 104.687866 397.765564 127.092773 C 397.765564 149.497437 415.927246 167.660156 438.331604 167.660156 Z"/>
        </g>
        <g id="smilingfacewithsunglassescolor">
            <linearGradient id="linearGradient2" x1="-103.531506" y1="201.000583" x2="907.57502" y2="575.856646" gradientUnits="userSpaceOnUse">
                <stop offset="1e-05" stop-color="#222222" stop-opacity="1"/>
                <stop offset="1" stop-color="#000000" stop-opacity="1"/>
            </linearGradient>
            <path id="path8" fill="none" stroke="url(#linearGradient2)" stroke-width="30" stroke-linecap="round" stroke-linejoin="round" opacity="0.902823" d="M 309.577606 411.882446 C 309.577606 411.882446 337.311432 451.457031 402.02179 451.457031 C 466.732056 451.457031 494.465881 411.882446 494.465881 411.882446"/>
        </g>
        <g id="emojiu1f576">
            <g id="Group" opacity="0.950693">
                <linearGradient id="linearGradient3" x1="324.923935" y1="303.686805" x2="171.763474" y2="197.289503" gradientUnits="userSpaceOnUse">
                    <stop offset="1e-05" stop-color="#131815" stop-opacity="1"/>
                    <stop offset="1" stop-color="#052004" stop-opacity="1"/>
                </linearGradient>
                <path id="path9" fill="url(#linearGradient3)" stroke="none" opacity="0.950693" d="M 342.977234 196.64978 C 337.794952 188.046143 327.027893 170.084351 249.645935 168.021484 C 196.615631 166.210205 165.723206 172.700562 155.00647 187.995911 C 150.327332 195.341614 145.698486 213.152588 150.226715 256.271118 C 158.075592 328.370178 194.301208 330.282104 240.237335 332.646851 L 243.708954 332.848022 C 248.689972 333.099609 253.36911 333.250549 257.796692 333.250549 C 322.902191 333.250549 334.27301 304.823486 342.625061 265.428162 C 350.071411 231.869141 350.222351 208.775269 342.977234 196.64978 Z"/>
                <linearGradient id="linearGradient4" x1="629.521723" y1="303.603829" x2="476.339528" y2="197.269988" gradientUnits="userSpaceOnUse">
                    <stop offset="1e-05" stop-color="#131815" stop-opacity="1"/>
                    <stop offset="1" stop-color="#052004" stop-opacity="1"/>
                </linearGradient>
                <path id="path10" fill="url(#linearGradient4)" stroke="none" opacity="0.950693" d="M 646.165588 187.794617 C 635.599792 172.650269 604.707397 166.210205 551.677063 168.021484 C 474.244812 170.134644 463.477783 188.046143 458.295471 196.64978 L 458.295471 196.64978 C 451.050354 208.775269 451.151001 231.869141 458.697998 265.277222 C 467.100342 304.773193 478.420837 333.149963 543.526367 333.149963 C 547.953918 333.149963 552.683411 332.999023 557.614075 332.747437 L 561.085693 332.546204 C 606.971497 330.181458 643.247437 328.269531 651.096313 256.170471 C 655.574219 213.152588 650.945374 195.341614 646.165588 187.794617 Z"/>
            </g>
            <linearGradient id="linearGradient5" x1="250.199403" y1="163.278711" x2="552.079576" y2="337.989408" gradientUnits="userSpaceOnUse">
                <stop offset="1e-05" stop-color="#1f1f1f" stop-opacity="1"/>
                <stop offset="1" stop-color="#000000" stop-opacity="1"/>
            </linearGradient>
            <path id="path11" fill="url(#linearGradient5)" stroke="none" d="M 702.013489 169.32959 C 702.013489 169.32959 696.982117 160.776306 606.26709 152.172729 C 511.023865 143.116394 463.628662 162.235413 444.00647 174.360901 C 440.484558 175.870361 434.44696 177.379761 427.352722 176.876587 L 425.843384 176.876587 C 416.283813 176.373535 407.680237 175.870361 397.617554 175.870361 L 397.114441 175.870361 C 391.579956 175.870361 379.454407 176.373535 370.901123 176.876587 C 366.876038 177.379761 363.354126 176.876587 360.335327 175.870361 C 342.172241 163.795166 294.827332 142.61322 195.559052 152.172729 C 104.793732 160.776306 99.76239 169.32959 99.76239 169.32959 L 99.259247 203.593018 C 99.259247 203.593018 112.843872 207.618042 121.447449 218.183899 C 130.000732 228.749695 134.025787 289.226379 148.666992 317.452148 C 170.804871 361.325439 280.186127 350.256531 280.186127 350.256531 C 280.186127 350.256531 325.01535 353.778442 346.700378 315.993103 C 365.366699 283.742249 372.913696 238.359558 374.926208 227.290588 C 379.454407 222.76239 388.00769 217.227966 400.636353 216.724792 C 414.72406 216.724792 423.830811 223.768677 427.855896 228.800049 C 429.868408 242.384644 437.415405 285.251587 455.578552 315.993103 C 477.263611 353.778442 522.092834 350.256531 522.092834 350.256531 C 522.092834 350.256531 631.474121 361.325439 653.612 317.502502 C 667.699768 289.276672 671.775146 228.800049 680.831482 218.234192 C 689.384827 207.165283 703.019714 203.643372 703.019714 203.643372 L 702.013489 169.32959 Z M 337.644012 264.270935 C 329.090729 304.57196 317.971497 331.791443 243.910187 327.766418 C 196.011871 325.250732 162.75473 325.250732 155.207733 255.717651 C 150.679535 212.397888 155.710846 196.247253 159.232788 190.712769 C 162.75473 185.681458 175.383392 170.537109 249.444672 173.052795 C 323.505951 175.065308 334.12207 191.719055 338.650299 199.266052 C 343.178467 206.813049 346.700378 223.96991 337.644012 264.270935 Z M 646.065002 255.717651 C 638.518005 325.250732 605.260864 325.250732 557.362549 327.766418 C 483.301208 331.791443 472.182007 304.57196 463.628662 264.270935 C 454.572327 223.96991 458.094238 206.813049 462.622437 199.266052 C 467.150635 191.719055 477.766785 175.065308 551.828003 173.052795 C 625.889343 170.537109 638.518005 185.631165 642.039917 190.712769 C 645.56189 196.247253 650.593201 212.347534 646.065002 255.717651 Z"/>
            <linearGradient id="linearGradient6" x1="171.81374" y1="215.719158" x2="241.440059" y2="215.719158" gradientUnits="userSpaceOnUse">
                <stop offset="1e-05" stop-color="#68686f" stop-opacity="1"/>
                <stop offset="1" stop-color="#8e8e93" stop-opacity="1"/>
            </linearGradient>
            <path id="path12" fill="url(#linearGradient6)" stroke="none" opacity="0.396742" d="M 214.074371 191.366882 C 235.860046 187.140564 243.205811 197.706299 241.092651 207.165283 C 237.218536 224.624023 220.413849 215.315979 195.810608 230.309387 C 185.446045 236.648926 181.219757 241.177063 177.395935 241.026123 C 173.723053 240.875183 170.553314 237.101685 172.31427 229.957214 C 175.484009 216.976379 180.766937 197.807007 214.074371 191.366882 Z"/>
            <linearGradient id="linearGradient7" x1="477.54325" y1="217.146697" x2="537.006055" y2="217.146697" gradientUnits="userSpaceOnUse">
                <stop offset="1e-05" stop-color="#68686f" stop-opacity="1"/>
                <stop offset="1" stop-color="#8e8e93" stop-opacity="1"/>
            </linearGradient>
            <path id="path13" fill="url(#linearGradient7)" stroke="none" opacity="0.396742" d="M 500.055603 196.3479 C 508.96106 191.366882 533.966797 186.888977 536.633423 200.020752 C 539.350342 213.555115 526.621033 217.278198 517.614929 220.347351 C 496.332397 227.592468 492.810486 237.906738 488.382874 240.724304 C 485.414368 242.585876 476.659851 246.812256 477.615784 233.9823 C 478.722717 217.680725 484.055969 205.354004 500.055603 196.3479 Z"/>
        </g>
    </g>
</svg>
