<?xml version="1.0" encoding="UTF-8"?>
<!-- Generated by Pixelmator Pro 3.7 -->
<svg width="605" height="203" viewBox="0 0 605 203" xmlns="http://www.w3.org/2000/svg">
    <g id="emojiu1f576">
        <g id="Group" opacity="0.950693">
            <linearGradient id="linearGradient1" x1="225.923935" y1="154.686805" x2="72.763474" y2="48.289503" gradientUnits="userSpaceOnUse">
                <stop offset="1e-05" stop-color="#131815" stop-opacity="1"/>
                <stop offset="1" stop-color="#052004" stop-opacity="1"/>
            </linearGradient>
            <path id="path9" fill="url(#linearGradient1)" stroke="none" opacity="0.950693" d="M 243.977234 47.64978 C 238.794952 39.046143 228.027893 21.084351 150.645935 19.021484 C 97.615631 17.210205 66.723206 23.700562 56.00647 38.995911 C 51.327332 46.341614 46.698486 64.152588 51.226715 107.271118 C 59.075592 179.370178 95.301208 181.282104 141.237335 183.646851 L 144.708954 183.848022 C 149.689972 184.099609 154.36911 184.250549 158.796692 184.250549 C 223.902191 184.250549 235.27301 155.823486 243.625061 116.428162 C 251.071411 82.869141 251.222351 59.775269 243.977234 47.64978 Z"/>
            <linearGradient id="linearGradient2" x1="530.521723" y1="154.603829" x2="377.339528" y2="48.269988" gradientUnits="userSpaceOnUse">
                <stop offset="1e-05" stop-color="#131815" stop-opacity="1"/>
                <stop offset="1" stop-color="#052004" stop-opacity="1"/>
            </linearGradient>
            <path id="path10" fill="url(#linearGradient2)" stroke="none" opacity="0.950693" d="M 547.165588 38.794617 C 536.599792 23.650269 505.707397 17.210205 452.677063 19.021484 C 375.244812 21.134644 364.477783 39.046143 359.295471 47.64978 L 359.295471 47.64978 C 352.050354 59.775269 352.151001 82.869141 359.697998 116.277222 C 368.100342 155.773193 379.420837 184.149963 444.526367 184.149963 C 448.953918 184.149963 453.683411 183.999023 458.614075 183.747437 L 462.085693 183.546204 C 507.971497 181.181458 544.247437 179.269531 552.096313 107.170471 C 556.574219 64.152588 551.945374 46.341614 547.165588 38.794617 Z"/>
        </g>
        <linearGradient id="linearGradient3" x1="151.199403" y1="14.278711" x2="453.079576" y2="188.989408" gradientUnits="userSpaceOnUse">
            <stop offset="1e-05" stop-color="#1f1f1f" stop-opacity="1"/>
            <stop offset="1" stop-color="#000000" stop-opacity="1"/>
        </linearGradient>
        <path id="path11" fill="url(#linearGradient3)" stroke="none" d="M 603.013489 20.32959 C 603.013489 20.32959 597.982117 11.776306 507.26709 3.172729 C 412.023865 -5.883606 364.628662 13.235413 345.00647 25.360901 C 341.484558 26.870361 335.44696 28.379761 328.352722 27.876587 L 326.843384 27.876587 C 317.283813 27.373535 308.680237 26.870361 298.617554 26.870361 L 298.114441 26.870361 C 292.579956 26.870361 280.454407 27.373535 271.901123 27.876587 C 267.876038 28.379761 264.354126 27.876587 261.335327 26.870361 C 243.172241 14.795166 195.827332 -6.38678 96.559052 3.172729 C 5.793732 11.776306 0.76239 20.32959 0.76239 20.32959 L 0.259247 54.593018 C 0.259247 54.593018 13.843872 58.618042 22.447449 69.183899 C 31.000732 79.749695 35.025787 140.226379 49.666992 168.452148 C 71.804871 212.325439 181.186127 201.256531 181.186127 201.256531 C 181.186127 201.256531 226.01535 204.778442 247.700378 166.993103 C 266.366699 134.742249 273.913696 89.359558 275.926208 78.290588 C 280.454407 73.76239 289.00769 68.227966 301.636353 67.724792 C 315.72406 67.724792 324.830811 74.768677 328.855896 79.800049 C 330.868408 93.384644 338.415405 136.251587 356.578552 166.993103 C 378.263611 204.778442 423.092834 201.256531 423.092834 201.256531 C 423.092834 201.256531 532.474121 212.325439 554.612 168.502502 C 568.699768 140.276672 572.775146 79.800049 581.831482 69.234192 C 590.384827 58.165283 604.019714 54.643372 604.019714 54.643372 L 603.013489 20.32959 Z M 238.644012 115.270935 C 230.090729 155.57196 218.971497 182.791443 144.910187 178.766418 C 97.011871 176.250732 63.75473 176.250732 56.207733 106.717651 C 51.679535 63.397888 56.710846 47.247253 60.232788 41.712769 C 63.75473 36.681458 76.383392 21.537109 150.444672 24.052795 C 224.505951 26.065308 235.12207 42.719055 239.650299 50.266052 C 244.178467 57.813049 247.700378 74.96991 238.644012 115.270935 Z M 547.065002 106.717651 C 539.518005 176.250732 506.260864 176.250732 458.362549 178.766418 C 384.301208 182.791443 373.182007 155.57196 364.628662 115.270935 C 355.572327 74.96991 359.094238 57.813049 363.622437 50.266052 C 368.150635 42.719055 378.766785 26.065308 452.828003 24.052795 C 526.889343 21.537109 539.518005 36.631165 543.039917 41.712769 C 546.56189 47.247253 551.593201 63.347534 547.065002 106.717651 Z"/>
        <linearGradient id="linearGradient4" x1="72.81374" y1="66.719158" x2="142.440059" y2="66.719158" gradientUnits="userSpaceOnUse">
            <stop offset="1e-05" stop-color="#68686f" stop-opacity="1"/>
            <stop offset="1" stop-color="#8e8e93" stop-opacity="1"/>
        </linearGradient>
        <path id="path12" fill="url(#linearGradient4)" stroke="none" opacity="0.396742" d="M 115.074371 42.366882 C 136.860046 38.140564 144.205811 48.706299 142.092651 58.165283 C 138.218536 75.624023 121.413849 66.315979 96.810608 81.309387 C 86.446045 87.648926 82.219757 92.177063 78.395935 92.026123 C 74.723053 91.875183 71.553314 88.101685 73.31427 80.957214 C 76.484009 67.976379 81.766937 48.807007 115.074371 42.366882 Z"/>
        <linearGradient id="linearGradient5" x1="378.54325" y1="68.146697" x2="438.006055" y2="68.146697" gradientUnits="userSpaceOnUse">
            <stop offset="1e-05" stop-color="#68686f" stop-opacity="1"/>
            <stop offset="1" stop-color="#8e8e93" stop-opacity="1"/>
        </linearGradient>
        <path id="path13" fill="url(#linearGradient5)" stroke="none" opacity="0.396742" d="M 401.055603 47.3479 C 409.96106 42.366882 434.966797 37.888977 437.633423 51.020752 C 440.350342 64.555115 427.621033 68.278198 418.614929 71.347351 C 397.332397 78.592468 393.810486 88.906738 389.382874 91.724304 C 386.414368 93.585876 377.659851 97.812256 378.615784 84.9823 C 379.722717 68.680725 385.055969 56.354004 401.055603 47.3479 Z"/>
    </g>
</svg>
