<?xml version="1.0" encoding="UTF-8"?>
<!-- Generated by Pixelmator Pro 3.7 -->
<svg width="685" height="772" viewBox="0 0 685 772" xmlns="http://www.w3.org/2000/svg">
    <g id="potatocolor">
        <radialGradient id="radialGradient1" cx="643.135294" cy="143.123655" r="795.422148" fx="643.135294" fy="143.123655" gradientUnits="userSpaceOnUse">
            <stop offset="1e-05" stop-color="#ffe7bb" stop-opacity="1"/>
            <stop offset="0.399343" stop-color="#eab994" stop-opacity="1"/>
            <stop offset="0.657157" stop-color="#dd977f" stop-opacity="1"/>
            <stop offset="0.78124" stop-color="#d27e76" stop-opacity="1"/>
            <stop offset="0.885055" stop-color="#c96a6f" stop-opacity="1"/>
        </radialGradient>
        <path id="Path" fill="url(#radialGradient1)" stroke="none" d="M 529.189087 28.33844 C 414.224609 -25.859009 276.814758 9.177734 201.814148 111.550842 L 58.381744 306.99176 C -49.739571 454.255737 3.63678 663.655273 168.966614 741.393188 C 314.862518 810.098145 488.404114 746.593994 556.01416 600.424866 L 657.566101 380.350037 C 718.60675 247.867188 661.398193 90.747742 529.189087 28.33844 Z"/>
        <linearGradient id="linearGradient1" x1="51.205237" y1="187.603949" x2="304.400752" y2="300.515462" gradientUnits="userSpaceOnUse">
            <stop offset="1e-05" stop-color="#ab8261" stop-opacity="1"/>
            <stop offset="1" stop-color="#ae8462" stop-opacity="0"/>
        </linearGradient>
        <path id="path1" fill="url(#linearGradient1)" stroke="none" d="M 529.189087 28.33844 C 414.224609 -25.859009 276.814758 9.177734 201.814148 111.550842 L 58.381744 306.99176 C -49.739571 454.255737 3.63678 663.655273 168.966614 741.393188 C 314.862518 810.098145 488.404114 746.593994 556.01416 600.424866 L 657.566101 380.350037 C 718.60675 247.867188 661.398193 90.747742 529.189087 28.33844 Z"/>
        <radialGradient id="radialGradient2" cx="136.744262" cy="441.656223" r="66.940949" fx="136.744262" fy="441.656223" gradientUnits="userSpaceOnUse">
            <stop offset="1e-05" stop-color="#bb8056" stop-opacity="1"/>
            <stop offset="1" stop-color="#b0693c" stop-opacity="1"/>
        </radialGradient>
        <path id="path3" fill="url(#radialGradient2)" stroke="none" d="M 162.967377 468.171997 C 185.806732 468.171997 204.321442 449.788574 204.321442 427.11322 C 204.321442 404.437866 185.806732 386.054443 162.967377 386.054443 C 140.128845 386.054443 121.614655 404.437866 121.614655 427.11322 C 121.614655 449.788574 140.128845 468.171997 162.967377 468.171997 Z"/>
        <radialGradient id="radialGradient3" cx="188.924436" cy="624.707001" r="38.72044" fx="188.924436" fy="624.707001" gradientUnits="userSpaceOnUse">
            <stop offset="1e-05" stop-color="#c5805e" stop-opacity="1"/>
            <stop offset="1" stop-color="#b9663b" stop-opacity="1"/>
        </radialGradient>
        <path id="path4" fill="url(#radialGradient3)" stroke="none" d="M 204.318726 634.136841 C 220.38089 634.136841 233.402008 621.115723 233.402008 605.050842 C 233.402008 588.988647 220.38089 575.967529 204.318726 575.967529 C 188.253815 575.967529 175.233521 588.988647 175.233521 605.050842 C 175.233521 621.115723 188.253815 634.136841 204.318726 634.136841 Z"/>
        <radialGradient id="radialGradient4" cx="550.753146" cy="379.211366" r="42.910565" fx="550.753146" fy="379.211366" gradientUnits="userSpaceOnUse">
            <stop offset="0.05633" stop-color="#dc9b66" stop-opacity="1"/>
            <stop offset="0.852005" stop-color="#ca7544" stop-opacity="1"/>
        </radialGradient>
        <path id="path5" fill="url(#radialGradient4)" stroke="none" d="M 546.874451 384.592773 C 559.460327 391.862915 576.401184 386.098267 584.711487 371.71405 C 593.02179 357.329773 589.55365 339.773071 576.967773 332.500183 C 564.379211 325.230103 547.438354 330.99469 539.128052 345.378967 C 530.817749 359.763245 534.285828 377.319946 546.874451 384.592773 Z"/>
        <radialGradient id="radialGradient5" cx="404.480044" cy="126.092767" r="76.156547" fx="404.480044" fy="126.092767" gradientUnits="userSpaceOnUse">
            <stop offset="0.05633" stop-color="#dc9b66" stop-opacity="1"/>
            <stop offset="0.852005" stop-color="#c97c34" stop-opacity="1"/>
        </radialGradient>
        <path id="path6" fill="url(#radialGradient5)" stroke="none" d="M 438.331604 166.660156 C 460.738708 166.660156 478.900391 148.497437 478.900391 126.092773 C 478.900391 103.687866 460.738708 85.525085 438.331604 85.525085 C 415.927246 85.525085 397.765564 103.687866 397.765564 126.092773 C 397.765564 148.497437 415.927246 166.660156 438.331604 166.660156 Z"/>
    </g>
</svg>
